<?xml version="1.0" encoding="UTF-8"?>
<svg id="Layer_1" data-name="Layer 1" xmlns="http://www.w3.org/2000/svg" viewBox="0 0 1024 1024">
  <defs>
    <style>
      .cls-1 {
        fill: #009df6;
        stroke-width: 0px;
      }
    </style>
  </defs>
  <path class="cls-1" d="M390.59,372.34c20.76,6.67,35.59,19.9,44.24,39.97,3.68,10.5,4.36,21.33,4.28,32.39-.23,33.78-.21,67.56,0,101.34.06,10.26-1.02,20.2-4.58,29.83,0,0,.28-.21.28-.21-.87.57-.87,1.51-1.01,2.39,0,0,.08-.29.08-.29-.83.92-1.5,1.89-1.08,3.22,0,0-.04-.21-.05-.22-1.24.71-1.63,1.94-1.98,3.2,0,0,.15-.18.15-.18-.84.52-1.14,1.29-1.06,2.25l.13-.23s-.23-.13-.23-.13c-.27.42-.54.83-.81,1.25-3.8,5.41-8.38,10.15-13.02,14.83-14.38,11.32-30.88,15.5-48.96,15.11-15.99-.34-31.99.09-47.98-.18-5.24-.09-9.48.99-12.5,5.44-.24,0-.34.11-.32.35-1.09,1.15-2.17,2.31-3.26,3.46l.04-.04c-1.36,1.34-2.72,2.68-4.08,4.02,0,0,.05-.05.05-.05-3.35,3.35-6.7,6.7-10.05,10.05,0,0,.17.01.17.01-.63.11-1.05.42-1.12,1.11,0,0-.02-.23-.02-.23-1.38.04-2.01.83-2.12,2.13-.28.28-.56.56-.84.84-3.03,3.05-6.06,6.1-9.09,9.15,0,0,.07-.07.07-.07-1.04,1-2.09,2-3.13,3.01,0,0,.25.06.24.06-.65.07-1.29.16-1.16,1.08l.12-.37s-.37-.12-.37-.12c-6.6,3.94-13.38,4.43-20.37,1.11l-.26.13s.12.27.12.27c.06-.82-.55-.94-1.14-1.08,0,0,.14,0,.14,0-2.12-2.28-4.51-4.34-5.93-7.2,0,0,.17.18.17.18-.52-1.97-1.04-3.94-1.55-5.91-.03-.33-.05-.66-.08-.99-.03-.67-.05-1.34-.08-2.02-.05-7.41.83-14.85-.5-22.24-.36-1.83-1.96-2.26-3.34-2.57-7.37-1.64-14.09-4.85-20.73-8.3,0,0,.06.05.06.05-3.32-2.46-6.65-4.91-9.97-7.37,0,0,.27.15.27.15-2.07-2.03-3.59-4.63-6.28-6l.36.04s.04-.36.04-.36c-.11-.21-.29-.35-.52-.41-1.95-2.68-3.91-5.35-5.86-8.03-.39-.34-.79-.69-1.18-1.03,0,0,.14.07.14.07-.16-1.64-.81-3.06-1.97-4.23,0,0,.06.29.06.29-.13-.88-.2-1.79-1.08-2.33,0,0,.07.33.08.33-.11-.9-.15-1.82-1.01-2.4,0,0,.24.24.24.24-3.49-9.27-4.63-18.81-4.56-28.72.24-31.95.05-63.9.09-95.85.01-10.79-.66-21.62,1.38-32.33l-.24.09s.09.24.09.24c1.2-1.91,1.68-4.06,2.05-6.24,0,0-.16.18-.16.18.84-.52.85-1.38.88-2.22,0,0,.09-.38.09-.39.36-.8.72-1.6,1.07-2.39,6.12-12.56,15.08-22.59,26.92-30.02,4.4-2,8.8-4,13.2-6.01,0,0-.16.2-.16.2,8.65-2.65,17.49-3.38,26.53-3.34,35.06.15,70.12.12,105.18.04,8.99-.02,17.92.21,26.72,2.24ZM213.06,577.09l-.22-.18-.18.22c.06.33.22.61.48.83,1.24,2.34,2.71,4.5,4.88,6.09.33.35.66.69.99,1.04l-.04-.14c.37.37.75.74,1.12,1.12l-.12-.12c.37.38.73.75,1.1,1.13l-.11-.05c1.66,1.92,3.72,3.29,5.99,4.38l.21-.22-.22-.21c-.08.85.55.98,1.15,1.13l-.18-.05c5.53,3.89,11.67,6.19,18.42,5.87,5.78-.27,11.02.57,15.59,4.27l-.45-.21-.21.44c.58,1.89,1.59,3.78,1.65,5.69.22,6.97.05,13.95.21,20.92.04,1.64-1.16,4.04,1.12,4.81,2.56.88,4.88-.07,6.17-2.72l-.16.21.21.16c.28-.11.47-.32.57-.61,10.03-9.87,20.06-19.75,30.09-29.62,4.62-2.54,9.55-3.38,14.81-3.34,19.59.12,39.19.11,58.78,0,6.82-.04,13.47-1.16,19.4-4.91l-.12.04c.82-.18,1.79,0,2.29-.95l-.2.17c1.9-.76,3.68-1.71,5.14-3.18l-.15.11,1.92-1.32c2.9-1.74,5.15-4.14,7.07-6.9.47-.62.94-1.25,1.42-1.87l-.21-.25-.25.21c.85.08,1.01-.52,1.13-1.16l-.03.23c5.01-6.49,7.71-13.98,7.79-22.04.24-22.7.06-45.41.04-68.12,0-1,0-2.01,0-3.01,0-9.66,0-19.32,0-28.98,0-3.34,0-6.67.01-10.01,0-1,0-1.99,0-2.99,0-1.01,0-2.01,0-3.02.29-8.41.49-16.81-4.62-24.19l.28-.05c-.71-2.52-1.98-4.73-3.69-6.7-2.97-4.99-6.89-9.02-11.93-11.95-.65-.38-1.29-.77-1.94-1.15l.04.04c-.71-.37-1.42-.74-2.13-1.11l.21.05c-4.57-2.92-9.53-4.69-14.97-5.01-.36-.08-.73-.16-1.09-.25-5.01-1.02-10.06-.45-15.1-.42-1.65,0-3.3,0-4.95,0-4.01,0-8.03,0-12.04,0-1.32,0-2.64,0-3.95-.01-2.69,0-5.37,0-8.06-.01-5.31,0-10.63,0-15.94,0-1.35,0-2.7,0-4.04,0-1.32,0-2.64,0-3.96,0-2.02,0-4.03,0-6.05,0-.65,0-1.3,0-1.96,0-2.01,0-4.03,0-6.04,0h-6.95c-1.01,0-2.03,0-3.04,0-5.65,0-11.31,0-16.96,0-2.35,0-4.69,0-7.04,0-.99,0-1.97,0-2.96,0-3.34.01-6.69.02-10.03.03-1.78-.26-3.54-.27-5.18.63-7.04.46-13.45,2.7-19.19,6.81l.22-.2c-1.87.8-3.49,1.95-4.87,3.45-9.21,7.37-14.96,16.89-16.06,28.61-1.67,17.75-.45,35.59-.63,53.39-.12,11.72.03,11.73,11.45,11.78,8.86.04,13.2-.82,13.09-12.14-.04-4.6,1.64-8.53,6.68-9.67,5.32-1.19,8.05.46,10.97,6.12.64,11.97.8,23.95-.11,35.92-4.31,9.32-11.56,10.09-18.23,1.94l-1.17-1.03.25-.06c-1.24-1.72-3.07-1.96-4.99-1.98-5.03-.98-10.06-1.31-15.06.2-1.47.44-2.13,1.47-2.18,2.95-1.39,13.77-1.01,27.54-.15,41.31.08,5.29,1.29,10.28,4.05,14.83l-.08-.23c.15.85.2,1.76,1.1,2.24l-.08-.24c.12.85.31,1.67,1.12,2.16l-.07-.12c.14.6.3,1.18,1.1,1.11Z"/>
  <path class="cls-1" d="M684.88,611.85c-6.6.02-13.2.04-19.8.06,0-31.32-.02-62.63-.03-93.95,0,0-.04.15-.04.15,4.12-.08,8.25-.32,12.36-.2,2.5.07,5.34-1.08,7.42,1.39,0,0-.22-.2-.22-.2,2.77,4.16,5.55,8.31,8.32,12.47,8.92,14.4,18.29,28.51,27.89,42.46,1.1,1.87,2.21,3.74,3.31,5.61.29-.13.58-.25.88-.38v-61.33c6.55.05,13.1.1,19.65.14.05,31.21.09,62.41.14,93.62-5.98.12-11.97.19-17.95.39-1.88.06-2.31-1.14-3.17-2.44-11.63-17.61-23.38-35.15-35.1-52.71-1-1.6-1.99-3.2-3.68-5.91v60.82Z"/>
  <path class="cls-1" d="M535.99,481.22c-11.58-.04-23.16-.05-34.74-.16-1.52-.01-3.37.84-4.5-1.04,0-28.67,0-57.33,0-86,0-.65,0-1.31,0-1.96,0-.68,0-1.36,0-2.04.03-1,.05-2,.08-3.01l.16-.37c13.33.04,26.66.08,39.99.12,21.36,2.66,31.72,17.6,25.18,36.32l-.18.77c.14,0,.29,0,.43,0-1.32.15-1.7.97-1.54,2.17,0,0,.13-.13.13-.13-.94-.17-1.11.41-1.1,1.15l.1-.23s-.23-.11-.23-.1c-2.25,1.75-4.5,3.5-7.21,5.61,3.85,1.33,6.67,3.49,9.4,5.79.29.32.58.64.87.96,6.68,10.26,6.36,20.55.11,30.87-.32.36-.64.72-.95,1.08-.65.51-1.54.89-1.18,2l.2-.31s-.31-.2-.31-.2c-7.24,5.73-15.6,8.3-24.71,8.71ZM541.09,405.93c-.78-.6-1.46-1.43-2.34-1.75-7.11-2.57-14.49-1.08-21.76-1.32-2.1-.07-1.3,1.97-1.32,3.09-.07,5.33.15,10.66-.04,15.98-.1,2.72.94,3.38,3.43,3.29,4.99-.17,9.99-.06,14.98-.15,4.55-.07,8.09-2.08,9.95-6.25,1.89-4.25,1.43-8.38-1.88-11.93-.34-.32-.68-.64-1.02-.96ZM515.57,451.91c0,3.84.01,7.16,0,10.48,0,1.47.22,2.65,2.11,2.61,7.12-.15,14.31.69,21.32-1.09,5.8-1.47,9.17-6,8.97-11.58-.2-5.75-4-10.24-10.03-11.24-3.41-.57-6.94-.6-10.41-.65-3.78-.06-8.8-1.31-11.01.59-2.67,2.29-.51,7.48-.93,10.88Z"/>
  <path class="cls-1" d="M711.94,386.8c.64.13,1.28.26,1.92.39,7.33,1.02,14.15,3.28,19.14,9.05,9.78,11.29,9.61,23.73,3.77,36.69,0,0,.08-.09.08-.09-2.7,3.55-5.6,6.89-9.37,9.36,0,0-.37.18-.37.18-4.27,1.31-4.74,3.22-2.37,7.3,5.86,10.08,11.05,20.55,16.91,31.63h-19.71c-.95-.27-1.9-.55-2.84-.82-2.58-6.59-5.43-13.04-9.44-18.92,0,0,.1-.15.1-.15-.53-.9-1.07-1.8-1.6-2.7,0,0-.02.34,0,.34-.03-.92-.17-1.8-1.03-2.35,0,0,.21.23.21.23-1.01-1.95-2.02-3.91-3.03-5.86-.33-.67-.75-.72-1.22-.17,0-.01,0-.12,0-.12.33.43.65.45.97,0-.03-1.96-1.37-1.86-2.77-1.84-3.14.04-6.3.18-9.43-.07-2.99-.24-3.99.65-3.93,3.8.2,9.43.03,18.86.01,28.29,0,0-.01.01-.01.01-6.64-.02-13.28-.03-19.92-.05,0-.32-.04-.64-.14-.94.06-1.83.17-3.65.17-5.48.02-27.94.06-55.89-.04-83.83-.01-3.09.52-4.35,4.03-4.26,13.3.32,26.6.28,39.91.38ZM718.49,425.63c.23-.47.46-.93.69-1.4,4.98-8.28-.22-17.44-7.88-19.28-3.8-.92-7.57-.9-11.38-.91-11.94-.04-12.03-.02-11.87,12.11.07,4.94-2.21,11.7.95,14.3,3,2.47,9.51.71,14.48.74,5.25.03,10.32-.57,14.24-4.64.26-.3.53-.61.79-.91Z"/>
  <path class="cls-1" d="M546.48,519.15c3.37,3.04,7.88,4.73,10.42,8.74,1.15,1.81,2.43,3.58,3.31,5.52,3.84,8.41,3.08,9.61-5.78,9.68-3.14.02-6.28.18-9.42.27-.56-.32-1.37-.49-1.63-.97-5.16-9.48-16.12-12.72-25.12-7.39-6.99,4.15-7.01,12.76-.05,16.87,2.57,1.52,5.35,2.38,8.25,3.03,10.34,2.35,20.62,4.91,29.38,11.35,0,0-.09-.09-.09-.09,3.66,3.62,6.99,7.41,8.33,12.62,2.37,9.22-.09,17.28-5.56,24.69l.08.39s.39-.07.38-.07c-1.21-.53-1.57.46-2.09,1.16,0,0,.13-.05.13-.05-.37.37-.74.74-1.1,1.11,0,0-.02-.18-.02-.18-15.58,10.13-31.91,10.91-48.86,3.9,0,0,.17.13.17.13-4.77-2.88-8.78-6.59-12.13-11.03,0,0,.08.08.08.08-1.71-4.47-4-8.82-3.1-13.88,0,0-.04.02-.04.02,6.3.1,12.6.19,18.9.29.09.56.18,1.11.27,1.67.55,1.5.89,2.99,1.89,4.41,5.35,7.62,22.72,7.74,28.65,2.37,3.79-3.43,4.58-8.53,1.64-12.92-3.79-5.66-10.03-6.48-15.91-7.74-9.29-1.99-18.45-4.15-25.84-10.68-.16.18-.31.36-.47.54.23-1-.13-1.4-1.15-1.15,0,0,.14.15.14.15.17-.91.01-1.52-1.12-1.18l.33.12s.12-.33.12-.33c-1.11-1.62-2.21-3.23-3.32-4.84,0,0,.07.27.08.27-.22-.56.03-1.57-1.15-1.26.21-.2.41-.39.62-.59-5.58-17.99,3.16-33.15,21.41-37.26,10.04-2.26,19.76-.74,29.38,2.22Z"/>
  <path class="cls-1" d="M776.08,604.9c-4.08-3.65-7.65-7.77-11.04-12.05-2.11-3.89-4-7.88-5.17-12.18-3.37-12.33-2.38-24.5,1.22-36.59,0,0-.05.04-.05.04,2.13-3.65,4.25-7.3,6.38-10.95,0,0-.14.22-.14.22,11.36-13.96,26.29-19.09,43.81-17.38,16.03,1.57,29.44,10.11,35.51,26.91-5.39,1.05-10.79,1.96-16.1,3.2-2.44.57-3.39-.42-4.66-2.26-9.47-13.78-31.27-13.76-41.34-.06,0,0,.1-.21.1-.21-9.45,10.79-8.88,36.02,3.8,46.26,13.23,10.69,32.11,5.99,36.93-3.76,0,0-.19.21-.19.21.57-.78,1.14-1.55,1.72-2.33,0,0,.09-.07.09-.07,5.69,1.31,11.35,2.84,17.1,3.84,2.53.44,2.42,1.42,1.75,3.17,0,0,.07-.08.07-.08-2.02,3.02-4.04,6.04-6.06,9.06,0,0,.08-.06.08-.06-.68.56-1.64.96-1.14,2.15-.18-.17-.35-.34-.53-.51-1.5,1.46-2.99,2.92-4.49,4.38,0,0,.26.04.26.03-.68.07-1.23.27-1.14,1.13l.13-.3s-.3-.13-.3-.13c-3.84,1.84-7.51,4.26-11.55,5.4-16.01,4.54-31.17,2.59-45.03-7.07Z"/>
  <path class="cls-1" d="M621.97,481.29c-5.93-.12-11.85-.23-17.78-.35,0-11,.02-21.99-.05-32.99-.01-1.75.58-3.7-.96-5.21,0,0-.01.3,0,.3.02-.94-.24-1.75-1.08-2.29,0,0,.15.2.15.19-.14-.3-.29-.6-.43-.91-9.89-17.59-19.79-35.17-30.07-53.46,7.05,0,13.47.06,19.88-.03,2.71-.04,3.14,2.16,4,3.8,6.28,11.83,12.46,23.71,19.05,36.29,6.18-11.93,12.27-23.1,17.77-34.56,2.02-4.21,4.37-5.92,9.01-5.52,4.89.42,9.85.09,15.4.09-5.5,9.92-10.61,19.15-15.73,28.38-.12.32-.23.65-.35.97,0,0,.07-.2.07-.2-1.74,3.05-3.48,6.09-5.22,9.14,0,0,.17-.23.17-.23-1.22,2.11-2.43,4.23-3.65,6.34,0,0-.22.15-.22.15,0,0,.06.26.06.26-1.46,1.59-2.39,3.48-3.12,5.48,0,0,.06-.07.06-.07-3.55,4.42-5.11,9.3-4.8,15.13.44,8.44.14,16.93.13,25.4,0,1.7.7,3.89-2.28,3.88Z"/>
  <path class="cls-1" d="M594.46,525.29c.32.58.63,1.16.95,1.75.48.76.96,1.51,1.43,2.27,0,0-.2-.23-.2-.22.14.3.29.6.43.9,3.22,6.88,6.74,13.6,10.73,20.07.79,2.5,1.98,4.78,3.89,7.03,1.02-1.93,1.94-3.68,2.86-5.42-.18-.16-.36-.33-.54-.49,1.07.24.93-.64,1.13-1.22,0,0-.06.22-.06.22,4.66-9.05,9.31-18.09,13.97-27.14,0,0-.03.05-.03.05.85-1.52,1.7-3.05,2.55-4.57,0,0-.1.06-.09.06,7.11-1.61,14.25-.35,21.92-.81-4.78,8.84-9.19,16.99-13.6,25.15,0,0,.1-.1.1-.1-.86.5-1.07,1.31-1.07,2.23,0,0-.04-.31-.04-.31-3.8,6.55-7.59,13.1-11.39,19.65,0,0,.12.32.12.32-4.26,5.81-7.17,11.84-6.65,19.54.62,9.23.1,18.54.08,27.82-5.98.07-11.95.15-17.93.22-.65-.18-1.3-.35-1.95-.53,0,0,.11.31.11.31-.14-12.34.51-24.69-.36-37.03-10.21-18.14-20.43-36.28-30.63-54.43-.48-.85-.81-1.78-1.21-2.68.34-.1.68-.19,1.02-.29,5.65.03,11.3.05,16.95.08.68-.01,1.36-.02,2.04-.04.34.04.68.07,1.02.11.63.8,1.26,1.59,1.89,2.39,0,0-.07-.22-.07-.21.37.72.75,1.45,1.12,2.17,0,0-.07-.15-.07-.15.37.69.73,1.37,1.1,2.06v-.02c.16.42.33.85.5,1.27Z"/>
  <path class="cls-1" d="M763.5,467.4c-.29-.34-.57-.68-.86-1.02-1.03-1.33-2.06-2.67-3.09-4l-1.95-3.05c-12.02-21.33-7.41-52.9,16.4-68.25.34-.33.68-.66,1.02-.98,5.56-1.57,10.7-4.35,16.55-5.14,16.24-2.19,30.63,1.62,43.02,12.5.31.34.62.68.93,1.02.31.34.62.68.92,1.02,16.35,18.06,16.9,48.14,1.76,66.85-2.13,2.17-4.25,4.35-6.38,6.52-.82.53-1.64,1.06-2.45,1.59-.53.45-1.06.9-1.59,1.35-1.52.84-3.04,1.67-4.57,2.51-22.55,9.45-42.8,5.75-59.71-10.92ZM818.48,409.33c-.37-.25-.73-.51-1.1-.76-9.9-7.68-23.62-7.95-33.54-.67-14.2,9.93-16.75,33.94-5,47.23.31.35.62.71.93,1.06.64,1.39,1.75,2.28,3.11,2.89,10.29,8.22,24.55,8.06,35.77-.4,1.3-1.34,2.6-2.68,3.9-4.02,2.58-3.11,4.2-6.79,5.06-10.61,1.94-8.59,2.65-17.19-2.58-25.1-.26-3.24-2.56-5.29-4.45-7.57-.7-.67-1.4-1.35-2.1-2.02Z"/>
  <path class="cls-1" d="M321.15,492.98c0,22.68-.01,45.35-.02,68.03-.46,1.65-.92,3.3-1.37,4.95,0,0,.14-.19.14-.19-.3.39-.6.78-.89,1.17-.69.66-1.37,1.32-2.06,1.99-3.29,1.27-6.58,1.72-9.86-.06,0,0,.07.07.07.07-.99-1.07-1.99-2.14-2.98-3.21,0,0,.18.23.17.23-1.1-3.01-1.36-6.11-1.35-9.31.05-29.96,0-59.92.04-89.88.01-13.81.13-27.63.19-41.44,1.43-4.32,4.48-6.81,8.97-6.85,4.48-.04,6.89,3.12,8.64,6.83.1,4.56.2,9.13.3,13.69,0,3.68,0,7.36,0,11.04,0,.65,0,1.31,0,1.96,0,1.01,0,2.02,0,3.04,0,2.65,0,5.31,0,7.96,0,8.68,0,17.36,0,26.03,0,1.32,0,2.64,0,3.96Z"/>
  <path class="cls-1" d="M355.96,442.19c.25.31.49.61.74.92.3.52.32,1.4,1.31,1.07l-.22-.28s-.28.22-.28.23c.27,1.29.54,2.58.82,3.87,0,31.66,0,63.31-.01,94.97-.19,1.01-.38,2.02-.58,3.03,0,0,.02-.35.02-.35-.25.44-.5.88-.75,1.31-6.26,5.81-10.36,5.5-15.84-1.19-.23-.7-.46-1.4-.69-2.1,0,0,.21.23.21.22-.09-5.33-.26-10.65-.25-15.97.04-26.97.12-53.94.18-80.91h-.26s0,.26,0,.25c.24-.74.49-1.47.73-2.21,2.46-4.26,6.21-5.84,10.99-5.24.98.46,1.96.92,2.94,1.38,0,0-.05-.23-.05-.23.34.4.67.8,1.01,1.21Z"/>
  <path class="cls-1" d="M266.99,448.02c7.93-4.92,12.15-4.14,16.21,3.01.05.33.09.66.14.99,0,27.65.01,55.31.02,82.96l-.83,2.98c-2.85,3.96-6.67,5.57-11.27,3.8-4.52-1.74-5.44-5.66-5.43-10.16.06-26.2-.01-52.4-.04-78.6.4-1.66.8-3.31,1.2-4.97Z"/>
  <path class="cls-1" d="M394.21,496.89c0,5.82.23,11.65-.06,17.45-.29,5.75-3.6,8.81-8.74,8.76-5.06-.05-8.44-3.22-8.57-8.98-.25-11.47-.25-22.95-.05-34.42.1-5.71,3.89-9.4,8.77-9.35,4.88.05,8.5,3.8,8.74,9.58.23,5.64.05,11.31.05,16.96-.04,0-.09,0-.13,0Z"/>
</svg>